<svg xmlns="http://www.w3.org/2000/svg" version="1.1" xmlns:xlink="http://www.w3.org/1999/xlink" width="512" height="512" x="0" y="0" viewBox="0 0 512 512" style="enable-background:new 0 0 512 512" xml:space="preserve"><g><path d="M271 30.76V15c0-8.291-6.709-15-15-15s-15 6.709-15 15v15.76C107.384 38.591 0 150.453 0 286a14.998 14.998 0 0 0 10.649 14.355c6.299 1.904 13.169-.542 16.831-6.035 10.781-16.157 29.096-25.43 48.52-25.43s36.738 9.272 47.52 25.43c5.566 8.35 19.395 8.35 24.961 0 10.781-16.157 28.096-25.43 47.52-25.43 18.1 0 34.142 8.315 45 22.487V452c0 16.538-13.462 30-30 30s-30-13.462-30-30v-15c0-8.291-6.709-15-15-15s-15 6.709-15 15v15c0 33.091 26.909 60 60 60s60-26.909 60-60V291.378c10.858-14.172 26.9-22.487 45-22.487 19.424 0 36.738 9.272 47.52 25.43 5.566 8.35 19.395 8.35 24.961 0 10.781-16.157 29.096-25.43 48.52-25.43 19.424 0 36.738 9.272 47.52 25.43 3.755 5.614 10.668 7.921 16.831 6.035A15.001 15.001 0 0 0 512 286c0-135.547-107.384-247.409-241-255.24z" fill="#ff815b" opacity="1" data-original="#ff815b"></path></g></svg>