<svg class="img-fluid" id="outputsvg" xmlns="http://www.w3.org/2000/svg" style="transform: none; transform-origin: 50% 50%; cursor: move;" width="1786" height="1077" viewBox="0 0 17860 10770"><g id="l1g5qQUqplsyVhKjLEyuoD0" fill="#974f79" style="transform: none;"><g><path id="pAQMypD2Q" d="M9770 10529 c-130 -13 -310 -44 -438 -75 -700 -172 -1341 -613 -1748 -1202 -27 -39 -51 -72 -54 -72 -3 0 -62 37 -131 83 -413 273 -879 437 -1378 487 -149 15 -475 12 -627 -5 -581 -65 -1103 -282 -1574 -653 -125 -99 -366 -341 -469 -470 -264 -334 -458 -719 -565 -1121 -14 -51 -27 -95 -29 -97 -2 -2 -47 16 -100 41 -112 52 -282 105 -422 131 -154 29 -480 27 -633 -4 -1024 -206 -1648 -1207 -1377 -2211 111 -413 379 -776 745 -1014 401 -260 881 -345 1350 -241 113 25 267 77 343 116 22 11 41 17 44 14 3 -2 -1 -53 -8 -113 -17 -142 -15 -459 4 -598 77 -559 328 -1069 716 -1455 132 -131 229 -211 387 -316 736 -492 1693 -554 2492 -162 67 33 124 59 126 57 2 -2 31 -59 65 -126 371 -731 1065 -1232 1896 -1370 158 -26 612 -26 770 0 441 74 811 230 1158 489 73 55 184 154 278 247 l156 156 99 -63 c221 -139 553 -284 820 -357 605 -166 1263 -147 1851 51 1041 352 1829 1222 2075 2289 51 222 69 370 75 620 8 339 -18 580 -94 875 -19 74 -37 146 -40 159 -7 28 -14 29 120 -18 173 -61 270 -75 492 -75 170 0 214 4 295 22 236 55 429 142 600 271 522 392 733 1062 530 1680 -166 505 -597 890 -1122 1002 -120 26 -371 36 -493 20 -153 -20 -324 -70 -471 -137 -7 -3 -26 37 -48 102 -90 259 -244 486 -446 656 -161 135 -321 225 -511 287 -173 56 -244 66 -469 66 -227 0 -323 -15 -499 -77 -152 -53 -339 -158 -449 -251 -24 -21 -47 -37 -51 -37 -4 0 -17 46 -30 101 -160 710 -627 1382 -1251 1799 -379 253 -790 412 -1245 480 -161 25 -555 35 -715 19z"/></g></g></svg>