<svg class="img-fluid" id="outputsvg" xmlns="http://www.w3.org/2000/svg" style="transform: matrix(1, 0, 0, 1, 0, 0); transform-origin: 50% 50%; cursor: move; transition: transform 200ms ease-in-out 0s;" width="815" height="815" viewBox="0 0 8150 8150"><g id="l3YO5CY8czddbScHRW48Xs9" fill="rgb(0,77,175)" style="transform: none;"><g style="transform: none;"><path id="pXtKvjgdg" d="M3834 7983 c-18 -2 -44 -17 -60 -34 l-29 -30 -3 -692 c-2 -459 0 -704 7 -728 17 -59 41 -73 134 -79 l82 -5 3 -1087 2 -1088 -38 0 c-21 0 -63 4 -93 9 -30 5 -88 14 -129 21 -85 13 -263 69 -360 112 -85 38 -201 98 -219 111 -7 6 -21 16 -31 22 -45 27 -97 64 -109 79 -7 9 -19 16 -25 16 -6 0 -38 27 -71 61 -60 61 -119 99 -152 99 -25 0 -69 -29 -128 -85 -64 -60 -193 -152 -270 -194 -33 -18 -69 -41 -81 -52 -11 -10 -27 -19 -35 -19 -8 0 -57 -20 -109 -45 -52 -25 -103 -45 -113 -45 -10 0 -32 -7 -49 -16 -17 -9 -63 -22 -102 -30 -39 -7 -91 -18 -116 -24 -74 -17 -327 -28 -445 -20 -176 12 -323 41 -465 93 -85 31 -88 32 -210 92 -138 68 -155 77 -178 98 -10 10 -22 17 -26 17 -9 0 -46 29 -129 100 -131 113 -148 125 -187 125 -20 0 -49 -8 -64 -18 l-27 -18 4 -242 c5 -311 44 -590 120 -857 9 -30 23 -82 32 -115 8 -33 19 -67 24 -75 5 -9 12 -31 16 -50 4 -19 20 -66 35 -105 104 -259 138 -340 173 -405 189 -357 295 -523 492 -771 157 -197 463 -499 661 -652 180 -138 277 -206 339 -235 12 -6 27 -17 34 -26 7 -9 17 -16 22 -16 5 0 28 -12 52 -27 116 -74 405 -215 587 -286 127 -49 374 -128 460 -147 30 -7 69 -17 85 -22 122 -37 449 -84 675 -95 l145 -8 5 -197 c5 -190 6 -197 29 -222 31 -33 72 -41 110 -22 58 30 61 43 61 243 0 127 3 184 12 189 6 4 75 11 152 16 78 4 173 12 211 18 39 5 106 14 150 19 44 6 96 15 115 21 19 5 71 17 115 24 94 18 149 30 190 44 17 6 50 16 75 22 25 7 69 21 98 31 30 10 61 19 70 19 10 0 40 11 67 25 28 13 57 25 66 25 9 0 57 18 107 40 49 22 94 40 100 40 18 0 333 160 401 204 36 23 98 62 136 85 77 46 125 78 170 113 16 13 50 37 76 53 26 17 67 47 91 68 24 21 77 65 118 99 96 77 351 328 444 437 128 150 166 196 191 231 13 19 38 53 54 75 37 50 171 255 191 292 9 15 31 55 51 88 42 72 154 300 198 405 18 41 38 90 46 108 8 18 15 38 15 45 0 7 6 23 13 37 12 23 50 141 98 300 84 286 137 625 146 951 l5 176 -35 36 c-26 29 -42 37 -69 37 -35 0 -47 -8 -163 -110 -84 -73 -146 -120 -194 -146 -22 -12 -56 -33 -76 -48 -19 -15 -66 -40 -103 -55 -118 -50 -176 -73 -204 -82 -16 -5 -43 -14 -60 -20 -196 -66 -556 -91 -792 -55 -130 20 -272 56 -364 92 -79 31 -234 106 -277 134 -16 11 -40 24 -51 29 -12 5 -34 21 -49 35 -15 14 -32 26 -37 26 -12 0 -75 51 -152 121 -118 109 -140 107 -263 -12 -38 -37 -83 -74 -100 -83 -18 -9 -33 -21 -33 -26 0 -5 -11 -15 -24 -22 -77 -42 -96 -54 -148 -89 -32 -22 -64 -39 -72 -39 -8 0 -18 -4 -21 -10 -3 -5 -13 -10 -21 -10 -9 0 -46 -14 -82 -31 -37 -17 -80 -33 -97 -36 -16 -3 -43 -13 -60 -21 -16 -9 -48 -19 -70 -24 -123 -25 -266 -48 -308 -48 l-47 0 2 1088 3 1087 74 3 c89 4 125 24 141 80 13 47 13 1340 0 1396 -5 22 -20 51 -35 65 l-25 26 -233 1 c-127 1 -246 -1 -263 -3z m341 -788 l0 -560 -113 0 -113 0 -2 557 -2 557 90 4 c50 2 101 3 115 3 l25 -1 0 -560z m-1545 -2902 c0 -271 70 -1037 121 -1321 11 -64 27 -155 34 -202 15 -98 58 -309 79 -390 8 -30 24 -93 36 -140 41 -163 62 -236 115 -390 29 -85 57 -166 61 -180 14 -50 147 -348 198 -445 52 -98 138 -232 198 -306 49 -61 32 -77 -62 -59 -25 4 -82 15 -128 24 -245 46 -575 152 -817 264 -109 50 -141 66 -285 144 -117 64 -354 218 -427 278 -24 19 -64 51 -89 70 -25 19 -80 67 -123 106 -42 39 -106 96 -143 126 -81 68 -350 367 -421 468 -10 14 -31 43 -47 65 -223 297 -458 768 -562 1125 -50 170 -85 310 -93 375 -4 28 -11 64 -15 80 -5 17 -16 95 -25 175 -8 80 -18 164 -21 188 -8 55 8 56 79 4 138 -101 330 -194 528 -255 280 -87 504 -111 779 -83 91 9 181 20 200 25 19 6 73 20 120 31 239 61 505 187 649 307 14 12 34 23 44 23 15 0 17 -12 17 -107z m2905 97 c16 -26 294 -192 354 -211 20 -6 41 -15 46 -19 14 -10 206 -74 280 -94 221 -57 408 -74 632 -58 81 7 174 19 206 27 32 8 69 15 82 15 27 0 129 30 210 61 28 10 58 19 68 19 28 0 336 161 397 208 76 58 90 56 90 -10 0 -64 -31 -285 -60 -428 -68 -342 -181 -665 -342 -980 -82 -159 -218 -388 -261 -439 -15 -18 -27 -36 -27 -39 0 -4 -16 -24 -35 -46 -19 -21 -35 -42 -35 -47 0 -4 -14 -23 -31 -41 -60 -64 -76 -83 -99 -117 -13 -19 -46 -56 -72 -81 -26 -26 -48 -49 -48 -53 0 -12 -302 -307 -355 -347 -27 -20 -67 -53 -87 -71 -20 -19 -67 -54 -103 -79 -37 -25 -81 -57 -98 -71 -18 -14 -57 -40 -87 -58 -30 -18 -73 -45 -95 -61 -58 -41 -509 -269 -574 -290 -83 -27 -170 -58 -221 -79 -90 -37 -343 -101 -519 -131 -152 -26 -156 -23 -88 68 228 307 418 750 557 1302 12 47 28 110 36 140 33 129 77 363 118 635 8 50 17 101 20 115 6 24 20 154 51 455 17 169 32 399 41 638 6 162 8 177 25 177 10 0 21 -5 24 -10z m-2607 -32 c26 -17 49 -35 52 -38 17 -23 317 -166 425 -203 131 -45 162 -54 290 -81 180 -38 487 -43 665 -10 196 36 189 35 325 80 130 43 168 59 280 115 66 34 138 74 160 90 67 49 115 79 128 79 10 0 12 -29 10 -122 -7 -238 -46 -794 -63 -883 -5 -27 -12 -79 -15 -115 -11 -120 -71 -493 -111 -685 -48 -237 -92 -402 -175 -665 -89 -277 -236 -600 -342 -747 -95 -132 -157 -206 -186 -224 -15 -9 -49 -33 -74 -52 -84 -64 -146 -87 -236 -87 -56 0 -96 6 -133 20 -67 25 -207 136 -271 215 -321 395 -567 1122 -701 2070 -30 213 -46 351 -56 485 -6 74 -13 142 -15 150 -2 8 -9 130 -15 270 -5 140 -12 281 -16 313 -6 69 4 73 74 25z"/></g></g><g id="loxXrMlI7kHT9Q0cXYb5iC" fill="rgb(0,103,244)" style="transform: none;"><g style="transform: none;"><path id="p10ZefCiOI" d="M4005 7783 l-90 -4 2 -587 1 -587 144 0 143 0 0 590 0 590 -55 1 c-30 0 -95 -1 -145 -3z"/><path id="p1AimI8tbT" d="M2539 4407 c-144 -120 -410 -246 -649 -307 -47 -11 -101 -25 -120 -31 -19 -5 -105 -16 -192 -25 -252 -25 -453 -2 -727 83 -198 61 -390 154 -528 255 -42 31 -61 38 -98 38 -44 0 -45 -1 -45 -32 0 -51 40 -400 50 -433 4 -16 11 -52 15 -80 8 -65 43 -205 93 -375 104 -357 339 -828 562 -1125 16 -22 37 -51 47 -65 71 -101 340 -400 421 -468 37 -30 101 -87 143 -126 43 -39 98 -87 123 -106 25 -19 65 -51 89 -70 40 -33 168 -119 297 -202 50 -32 123 -72 255 -143 143 -76 373 -172 555 -231 232 -75 573 -149 657 -142 37 3 38 4 41 47 3 36 -2 50 -26 81 -60 73 -146 207 -198 305 -51 97 -184 395 -198 445 -4 14 -32 95 -61 180 -53 154 -74 227 -115 390 -12 47 -28 110 -36 140 -21 81 -64 292 -79 390 -7 47 -23 138 -34 202 -51 284 -121 1050 -121 1321 l0 107 -47 0 c-35 -1 -55 -7 -74 -23z"/><path id="p1Et4r9SY7" d="M5456 4253 c-9 -239 -24 -469 -41 -638 -31 -301 -45 -431 -51 -455 -3 -14 -12 -65 -20 -115 -41 -272 -85 -506 -118 -635 -8 -30 -24 -93 -36 -140 -49 -194 -139 -482 -195 -620 -126 -314 -220 -491 -363 -683 -37 -50 -43 -63 -40 -100 3 -38 6 -42 31 -45 78 -9 540 93 677 149 51 21 138 52 221 79 65 21 516 249 574 290 22 16 65 43 95 61 30 18 69 44 87 58 17 14 61 46 98 71 36 25 83 60 103 79 20 18 60 51 87 71 53 40 355 335 355 347 0 4 22 27 48 53 26 25 59 62 72 81 23 34 39 53 99 117 17 18 31 36 31 41 0 8 12 22 66 83 13 16 21 28 17 28 -3 0 4 11 16 24 35 37 177 276 259 436 161 315 274 638 342 980 33 165 60 367 60 458 l0 82 -47 0 c-41 0 -56 -6 -103 -42 -61 -47 -369 -208 -397 -208 -10 0 -40 -9 -68 -19 -81 -31 -183 -61 -210 -61 -13 0 -50 -7 -81 -15 -152 -39 -481 -39 -654 1 -148 34 -379 105 -405 124 -5 4 -26 13 -46 19 -60 19 -338 185 -354 211 -3 5 -28 10 -54 10 l-49 0 -6 -177z"/><path id="p9fAWdXx7" d="M2824 4318 c3 -57 11 -209 16 -338 6 -129 12 -246 15 -260 3 -14 9 -83 15 -155 15 -188 50 -459 96 -736 98 -597 264 -1138 461 -1508 109 -204 208 -334 333 -434 114 -90 161 -107 301 -107 98 0 116 3 165 26 30 14 76 42 101 61 25 19 59 43 74 52 29 18 91 92 186 224 106 147 253 470 342 747 83 263 127 428 175 665 40 192 100 565 111 685 3 36 10 88 15 115 17 90 54 612 64 913 l6 152 -45 0 c-45 0 -69 -12 -160 -79 -51 -37 -263 -145 -335 -170 -170 -58 -237 -78 -305 -92 -33 -6 -78 -15 -100 -20 -152 -33 -457 -30 -630 7 -128 27 -159 36 -290 81 -108 37 -408 180 -425 203 -3 3 -26 21 -52 38 -36 25 -57 32 -93 32 l-47 0 6 -102z"/></g></g></svg>