<svg class="img-fluid" id="outputsvg" xmlns="http://www.w3.org/2000/svg" style="transform: matrix(1, 0, 0, 1, 0, 0); transform-origin: 50% 50%; cursor: move; transition: transform 200ms ease-in-out 0s;" width="815" height="815" viewBox="0 0 8150 8150"><g id="l4WH35m0Gn8BaLSqsy2ZN4M" fill="#ff815b" style="transform: none;"><g style="transform: none;"><path id="pHbp3XU9y" d="M3834 7983 c-18 -2 -44 -17 -60 -34 l-29 -30 -3 -692 c-2 -459 0 -704 7 -728 17 -59 41 -73 134 -79 l82 -5 5 -1032 5 -1033 25 -24 c14 -14 41 -28 61 -31 32 -6 41 -3 70 23 l34 30 5 1034 5 1033 74 3 c89 4 125 24 141 80 13 47 13 1340 0 1396 -5 22 -20 51 -35 65 l-25 26 -233 1 c-127 1 -246 -1 -263 -3z m355 -217 c8 -9 10 -168 9 -572 l-3 -559 -123 0 -123 0 0 565 0 565 98 6 c54 3 105 6 114 7 9 1 22 -4 28 -12z"/><path id="pxfD8Fi81" d="M50 4753 l-35 -18 0 -240 c1 -246 9 -337 54 -580 22 -121 40 -201 64 -285 9 -30 23 -82 32 -115 8 -33 19 -67 24 -75 5 -9 12 -31 16 -50 4 -19 20 -66 35 -105 104 -259 138 -340 173 -405 189 -357 295 -523 492 -771 157 -197 463 -499 661 -652 180 -138 277 -206 339 -235 12 -6 27 -17 34 -26 7 -9 17 -16 22 -16 5 0 28 -12 52 -27 116 -74 405 -215 587 -286 127 -49 374 -128 460 -147 30 -7 69 -17 85 -22 122 -37 449 -84 675 -95 l145 -8 5 -197 c5 -190 6 -197 29 -222 31 -33 72 -41 110 -22 58 30 61 43 61 243 0 127 3 184 12 189 6 4 75 11 152 16 78 4 173 12 211 18 39 5 106 14 150 19 44 6 96 15 115 21 19 5 71 17 115 24 94 18 149 30 190 44 17 6 50 16 75 22 25 7 69 21 98 31 30 10 61 19 70 19 10 0 40 11 67 25 28 13 57 25 66 25 9 0 57 18 107 40 49 22 94 40 100 40 18 0 333 160 401 204 36 23 98 62 136 85 77 46 125 78 170 113 16 13 50 37 76 53 26 17 67 47 91 68 24 21 77 65 118 99 96 77 351 328 444 437 128 150 166 196 191 231 13 19 38 53 54 75 37 50 171 255 191 292 9 15 31 55 51 88 42 72 154 300 198 405 18 41 38 90 46 108 8 18 15 38 15 45 0 7 6 23 13 37 12 23 50 141 98 300 84 286 137 625 146 951 l5 176 -35 36 c-26 29 -42 37 -69 37 -35 0 -47 -8 -163 -110 -84 -73 -146 -120 -194 -146 -22 -12 -56 -33 -76 -48 -19 -15 -66 -40 -103 -55 -118 -50 -176 -73 -204 -82 -16 -5 -43 -14 -60 -20 -196 -66 -556 -91 -792 -55 -130 20 -272 56 -364 92 -79 31 -234 106 -277 134 -16 11 -40 24 -51 29 -12 5 -34 21 -49 35 -15 14 -32 26 -37 26 -12 0 -75 51 -152 121 -118 109 -140 107 -263 -12 -38 -37 -83 -74 -100 -83 -18 -9 -33 -21 -33 -26 0 -5 -11 -15 -24 -22 -77 -42 -96 -54 -148 -89 -32 -22 -64 -39 -72 -39 -8 0 -18 -4 -21 -10 -3 -5 -13 -10 -21 -10 -9 0 -46 -14 -82 -31 -37 -17 -80 -33 -97 -36 -16 -3 -43 -13 -60 -21 -33 -17 -55 -22 -220 -52 -196 -36 -474 -29 -721 19 -58 12 -228 69 -299 101 -77 34 -208 101 -224 113 -7 6 -21 16 -31 22 -45 27 -97 64 -109 79 -7 9 -19 16 -25 16 -6 0 -38 27 -71 61 -60 61 -119 99 -152 99 -25 0 -69 -29 -128 -85 -64 -60 -193 -152 -270 -194 -33 -18 -69 -41 -81 -52 -11 -10 -27 -19 -35 -19 -8 0 -57 -20 -109 -45 -52 -25 -103 -45 -113 -45 -10 0 -32 -7 -49 -16 -17 -9 -63 -22 -102 -30 -39 -7 -91 -18 -116 -24 -74 -17 -327 -28 -445 -20 -176 12 -323 41 -465 93 -85 31 -88 32 -210 92 -138 68 -155 77 -178 98 -10 10 -22 17 -26 17 -9 0 -46 29 -129 100 -155 134 -177 144 -237 113z m2597 -438 c8 -343 74 -1066 124 -1343 11 -64 27 -155 34 -202 15 -98 58 -309 79 -390 8 -30 24 -93 36 -140 41 -164 90 -332 110 -375 5 -11 25 -69 46 -130 20 -60 52 -143 70 -183 19 -41 34 -76 34 -78 0 -25 145 -306 200 -388 42 -63 58 -85 97 -137 24 -30 43 -63 43 -72 0 -33 -18 -33 -230 7 -196 37 -570 151 -721 219 -19 8 -61 28 -94 42 -94 43 -138 64 -160 76 -22 13 -28 17 -95 52 -100 52 -166 90 -186 108 -11 11 -24 19 -29 19 -4 0 -33 17 -63 38 -30 20 -62 42 -70 47 -9 6 -40 28 -70 50 -29 22 -68 50 -85 63 -18 13 -46 36 -62 53 -17 16 -35 29 -41 29 -5 0 -30 21 -54 46 -25 25 -86 81 -137 124 -103 88 -368 378 -446 490 -10 14 -31 43 -47 65 -131 175 -329 523 -422 740 -63 149 -138 371 -183 545 -9 36 -20 79 -25 95 -5 17 -14 62 -20 100 -6 39 -15 88 -21 110 -13 57 -50 396 -43 406 11 18 37 8 95 -36 33 -25 62 -45 65 -45 3 0 26 -13 51 -30 24 -16 49 -30 56 -30 7 0 23 -9 37 -20 14 -11 28 -20 32 -20 4 0 38 -14 75 -31 62 -29 225 -85 313 -108 187 -50 425 -69 635 -52 83 7 170 17 195 22 25 6 63 14 85 19 22 5 58 14 80 20 22 6 56 15 75 19 19 4 57 17 84 29 27 12 54 22 62 22 7 0 77 32 156 71 130 65 188 102 266 166 15 13 36 22 47 20 18 -2 20 -10 22 -102z m2898 95 c4 -6 25 -23 47 -38 23 -15 53 -35 67 -44 14 -10 35 -22 46 -28 11 -6 36 -20 55 -32 58 -35 148 -78 164 -78 8 0 17 -4 20 -9 7 -10 182 -72 271 -95 147 -38 199 -47 345 -57 286 -22 531 10 825 106 83 28 369 174 431 221 75 57 98 55 102 -6 7 -89 -48 -427 -105 -645 -29 -115 -57 -213 -66 -235 -3 -8 -17 -46 -31 -85 -14 -38 -35 -95 -46 -125 -12 -30 -29 -72 -36 -94 -31 -81 -188 -386 -260 -501 -41 -66 -78 -129 -83 -140 -5 -11 -18 -29 -30 -39 -11 -11 -21 -25 -21 -32 0 -7 -6 -17 -13 -21 -8 -4 -35 -39 -62 -78 -118 -171 -476 -547 -621 -654 -22 -15 -52 -41 -69 -57 -31 -29 -56 -48 -161 -118 -33 -22 -63 -45 -69 -51 -5 -7 -36 -27 -67 -44 -32 -18 -60 -37 -64 -42 -3 -6 -16 -15 -27 -20 -12 -5 -38 -19 -57 -31 -61 -37 -484 -248 -497 -248 -8 0 -41 -12 -76 -26 -34 -14 -75 -30 -92 -34 -16 -4 -52 -17 -80 -28 -48 -20 -111 -38 -202 -61 -108 -27 -125 -32 -160 -41 -67 -18 -284 -51 -293 -45 -19 12 -10 36 33 92 23 30 47 63 52 73 6 10 17 26 25 35 8 9 19 25 25 35 5 10 26 45 44 77 65 108 184 362 211 448 7 22 20 54 28 70 8 17 19 44 23 60 4 17 25 82 47 145 41 122 67 212 102 350 12 47 28 110 36 140 33 129 77 363 118 635 8 50 17 101 20 115 6 24 20 154 51 455 17 171 32 401 41 640 3 99 8 183 11 188 6 11 41 9 48 -3z m-2607 -31 c26 -18 52 -37 57 -43 6 -6 39 -26 75 -44 36 -19 98 -51 137 -72 66 -35 292 -120 353 -133 14 -3 66 -15 117 -26 197 -43 513 -50 703 -15 177 33 313 69 367 97 18 9 41 17 51 17 24 0 283 132 337 171 151 111 151 111 147 -66 -5 -218 -45 -778 -62 -870 -5 -27 -12 -79 -15 -115 -29 -312 -147 -903 -240 -1205 -103 -333 -186 -543 -297 -751 -78 -147 -222 -339 -287 -383 -188 -128 -207 -135 -333 -129 -75 3 -104 10 -148 31 -128 64 -291 235 -387 408 -72 129 -117 217 -153 304 -23 55 -48 114 -55 130 -34 76 -143 427 -190 610 -90 351 -181 899 -215 1295 -25 295 -52 798 -43 813 9 14 35 6 81 -24z"/></g></g></svg>