<svg class="img-fluid" id="outputsvg" xmlns="http://www.w3.org/2000/svg" style="transform: none; transform-origin: 50% 50%; cursor: move;" width="2084" height="1180" viewBox="0 0 20840 11800"><g id="l5fzRDbqWXPbEte9AlWVFIv" fill="#974f79" style="transform: none;"><g><path id="p1388RxnSs" d="M10320 11595 c-755 -93 -1440 -489 -1886 -1091 -32 -43 -59 -80 -60 -82 -1 -2 -77 73 -170 166 -248 247 -443 387 -749 537 -526 258 -1098 339 -1680 240 -928 -159 -1723 -797 -2078 -1670 -49 -119 -111 -307 -122 -368 -4 -20 -11 -39 -15 -42 -4 -2 -45 18 -91 46 -238 144 -470 231 -748 281 -177 32 -529 32 -701 0 -679 -125 -1228 -535 -1529 -1143 -364 -734 -268 -1600 250 -2250 174 -219 431 -425 695 -557 402 -201 899 -270 1327 -184 l87 18 0 -106 c0 -281 72 -641 185 -920 133 -331 313 -606 565 -864 332 -340 731 -576 1185 -701 522 -143 1102 -118 1611 70 236 87 535 258 730 415 43 35 138 122 210 192 l131 128 12 -67 c16 -92 73 -317 109 -433 257 -826 779 -1570 1468 -2092 513 -388 1121 -660 1736 -777 408 -78 901 -95 1303 -45 1718 211 3122 1442 3554 3115 32 122 81 350 81 375 0 2 39 4 88 4 260 0 606 62 858 155 151 55 426 194 554 280 564 377 961 946 1111 1590 12 55 24 101 24 103 1 1 33 -19 71 -44 220 -147 449 -221 724 -231 129 -4 175 -2 275 15 572 99 1005 517 1131 1093 27 118 27 418 1 539 -58 270 -176 495 -362 689 -250 260 -549 398 -923 427 -80 6 -92 9 -87 23 4 9 9 79 12 156 13 345 -83 687 -273 967 -242 357 -599 597 -1027 690 -88 19 -132 22 -322 22 -191 0 -234 -3 -325 -22 -503 -109 -908 -423 -1135 -879 l-51 -101 -39 61 c-111 172 -314 387 -488 518 -616 462 -1439 546 -2135 219 -56 -27 -130 -65 -163 -85 -33 -21 -62 -36 -64 -34 -1 2 -21 43 -43 90 -200 435 -559 849 -977 1127 -358 237 -765 386 -1201 437 -156 18 -495 18 -644 0z"/></g></g></svg>